<svg width="48" height="49" viewBox="0 0 48 49" fill="none" xmlns="http://www.w3.org/2000/svg">
<rect width="48" height="49" rx="12" fill="white"/>
<path opacity="0.3" d="M23.2638 7.51644C25.857 6.82159 28.523 8.36074 29.2179 10.9539L29.4112 11.6766H17.171C13.6273 11.6766 10.7542 14.549 10.754 18.0926V36.4432C10.5183 36.0563 10.3313 35.6305 10.2081 35.1707L5.42785 17.328C4.73304 14.7349 6.27145 12.0699 8.86437 11.3748L23.2638 7.51644Z" fill="#221F1F"/>
<path d="M32.0789 13.2324C34.7634 13.2326 36.9392 15.4092 36.9392 18.0938V36.5654C36.9392 39.25 34.7634 41.4266 32.0789 41.4268H17.1716C14.487 41.4268 12.3103 39.2501 12.3103 36.5654V18.0938C12.3103 15.4091 14.487 13.2324 17.1716 13.2324H32.0789ZM22.6736 33.4277C22.3298 33.9922 22.2592 34.6807 22.4812 35.3027C23.1868 37.2789 25.9913 37.2265 26.6501 35.2539C26.8457 34.6682 26.7857 34.0259 26.4832 33.4863L26.4753 33.4736L24.6248 30.2256L22.6736 33.4277ZM25.0955 34.2539L25.0994 34.2617C25.1821 34.4117 25.199 34.5912 25.1443 34.7549C24.9561 35.3175 24.1697 35.3141 23.9763 34.7725C23.9143 34.5985 23.9339 34.4059 24.03 34.248L24.5789 33.3477L25.0955 34.2539ZM27.3015 19.5625C26.4026 17.0442 22.8241 17.1071 21.9832 19.626C21.7318 20.379 21.812 21.2052 22.2058 21.8965L23.6775 24.4775L21.6462 27.9824L18.7146 28.0029C17.955 28.0083 17.2328 28.3363 16.7292 28.9014C15.0461 30.7905 16.6961 33.759 19.2078 33.2988C19.999 33.1538 20.6833 32.6619 21.0701 31.959L22.4734 29.4082H26.7019L28.1404 32.0215C28.5332 32.7354 29.2274 33.2355 30.031 33.3828C32.5821 33.8503 34.2583 30.835 32.5486 28.916C32.0411 28.3466 31.3155 28.0145 30.5505 28.0039H30.532L27.5437 27.9824L25.5154 24.4824L27.0554 21.9541C27.494 21.2343 27.5846 20.3559 27.3015 19.5625ZM30.5212 29.585C30.8416 29.5873 31.1475 29.7262 31.3611 29.9658C32.0808 30.7736 31.3663 32.0193 30.3181 31.8271C29.9841 31.7659 29.6953 31.5585 29.532 31.2617L28.6023 29.5713L30.5212 29.585ZM19.6775 31.1982C19.5202 31.4841 19.2424 31.6851 18.9207 31.7441C17.912 31.9288 17.2236 30.729 17.9167 29.9512C18.1224 29.7206 18.4169 29.5872 18.7253 29.585L20.573 29.5713L19.6775 31.1982ZM25.6208 27.8271H23.5691L24.5945 26.0576L25.6208 27.8271ZM18.4412 21.7119C16.4202 21.2989 14.9889 23.6662 16.3386 25.2451C16.7634 25.7419 17.3898 26.0221 18.0447 26.0078L21.7605 25.9258L19.8855 22.7412C19.5723 22.2096 19.046 21.8356 18.4412 21.7119ZM32.7742 25.2559C34.1025 23.702 32.6935 21.3726 30.7048 21.7793C30.1099 21.901 29.5931 22.2691 29.2849 22.792L27.4382 25.9258L31.0955 26.0068C31.7398 26.0209 32.3562 25.7448 32.7742 25.2559ZM18.1218 23.2617C18.2873 23.2956 18.4315 23.3979 18.5164 23.542L19.0242 24.4043L18.0095 24.4268C17.8319 24.4305 17.6619 24.3545 17.5466 24.2197C17.1878 23.8 17.5618 23.1475 18.1218 23.2617ZM31.0242 23.3291C31.552 23.2212 31.9036 23.8358 31.5662 24.2305C31.4578 24.3574 31.2978 24.4293 31.1306 24.4258L30.1755 24.4043L30.6531 23.5928C30.733 23.4572 30.8684 23.361 31.0242 23.3291ZM23.49 20.125C23.8602 19.0163 25.4183 19.0085 25.8054 20.0918C25.9287 20.4371 25.8898 20.8195 25.699 21.1328L24.6121 22.916L23.5867 21.1162C23.4153 20.8155 23.38 20.4543 23.49 20.125Z" fill="#221F1F"/>
</svg>
