<svg width="180" height="180" viewBox="0 0 180 180" fill="none" xmlns="http://www.w3.org/2000/svg">
<rect width="180" height="180" rx="45" fill="white"/>
<path d="M89.1346 27.6124C98.6606 25.0599 108.452 30.7134 111.005 40.2393L111.717 42.8946H66.7508C53.7329 42.8946 43.1795 53.4479 43.1795 66.4659V133.884C42.3117 132.461 41.6289 130.892 41.1756 129.2L23.6131 63.6563C21.0606 54.1303 26.714 44.3387 36.2401 41.7862L89.1346 27.6124Z" fill="#BDBCBC"/>
<path d="M121.512 48.6094C131.373 48.6095 139.368 56.6042 139.368 66.4658V134.322C139.368 144.184 131.374 152.18 121.512 152.18H66.75C56.8881 152.179 48.8936 144.184 48.8936 134.322V66.4658C48.8939 56.6042 56.8884 48.6096 66.75 48.6094H121.512ZM86.9639 122.795C85.7004 124.869 85.4401 127.398 86.2559 129.684C88.8476 136.944 99.1515 136.75 101.571 129.503C102.29 127.351 102.068 124.992 100.956 123.01L100.93 122.963L94.1309 111.033L86.9639 122.795ZM95.8604 125.832L95.875 125.858C96.1792 126.409 96.2399 127.068 96.0391 127.67C95.3483 129.738 92.4595 129.726 91.749 127.736C91.521 127.097 91.5939 126.39 91.9473 125.81L93.9629 122.503L95.8604 125.832ZM103.963 71.8613C100.661 62.6103 87.5179 62.8419 84.4287 72.0947C83.5048 74.8621 83.7994 77.8975 85.2471 80.4375L90.6504 89.9189L83.1904 102.793L72.4189 102.87C69.6288 102.89 66.9775 104.092 65.1279 106.168C58.9442 113.108 65.0057 124.014 74.2324 122.323C77.1389 121.79 79.6505 119.982 81.0713 117.4L86.2266 108.032H101.762L107.045 117.631C108.488 120.253 111.039 122.09 113.991 122.631C123.363 124.348 129.519 113.271 123.238 106.222C121.374 104.13 118.708 102.911 115.898 102.872H115.832L104.853 102.794L97.4014 89.9346L103.061 80.6475C104.672 78.003 105.003 74.7761 103.963 71.8613ZM115.79 108.681C116.968 108.689 118.093 109.198 118.878 110.079C121.522 113.046 118.896 117.623 115.046 116.918C113.818 116.693 112.757 115.929 112.157 114.838L108.741 108.631L115.79 108.681ZM75.959 114.607C75.3812 115.657 74.3596 116.392 73.1777 116.609C69.4722 117.288 66.9413 112.883 69.4873 110.025C70.2431 109.177 71.3271 108.687 72.4609 108.679L79.248 108.631L75.959 114.607ZM97.7891 102.223H90.2539L94.0215 95.7207L97.7891 102.223ZM71.417 79.7598C63.9925 78.2413 58.7322 86.9368 63.6904 92.7373C65.251 94.563 67.5537 95.5919 69.96 95.5391L83.6104 95.2393L76.7197 83.54C75.5693 81.5873 73.6387 80.2142 71.417 79.7598ZM124.068 92.7773C128.948 87.0691 123.772 78.5127 116.467 80.0068C114.28 80.454 112.381 81.8057 111.249 83.7275L104.468 95.2393L117.899 95.5342C120.267 95.5863 122.533 94.5737 124.068 92.7773ZM68.1289 88.9707C66.8108 87.4284 68.1863 85.0295 70.2441 85.4502C70.8521 85.5745 71.3795 85.9511 71.6914 86.4805L73.5576 89.6494L69.832 89.7314C69.1787 89.7458 68.5527 89.4664 68.1289 88.9707ZM117.64 85.6982C119.578 85.302 120.87 87.5609 119.63 89.0107C119.231 89.4771 118.643 89.74 118.028 89.7266L114.521 89.6494L116.277 86.668C116.571 86.1697 117.067 85.8153 117.64 85.6982ZM89.9609 73.9287C91.3208 69.8555 97.0484 69.8269 98.4697 73.8076C98.9225 75.0762 98.7784 76.4809 98.0771 77.6318L94.0859 84.1816L90.3164 77.5693C89.6869 76.4648 89.5571 75.1383 89.9609 73.9287Z" fill="#221F1F"/>
</svg>
